<svg width="147" height="83" viewBox="0 0 147 83" fill="none" xmlns="http://www.w3.org/2000/svg">
<rect width="147" height="83" fill="#09090B"/>
<path d="M30.5875 58.9688C32.0979 58.9688 33.374 59.5156 34.4156 60.6094C35.5094 61.651 36.0563 62.9271 36.0563 64.4375C36.0563 65.8958 35.5094 67.1719 34.4156 68.2656C33.374 69.3594 32.0979 69.9062 30.5875 69.9062C29.0771 69.9062 27.775 69.3594 26.6813 68.2656C25.6396 67.1719 25.1188 65.8958 25.1188 64.4375C25.1188 62.9271 25.6396 61.651 26.6813 60.6094C27.775 59.5156 29.0771 58.9688 30.5875 58.9688ZM52.425 58.9688C53.9354 58.9688 55.2115 59.5156 56.2531 60.6094C57.3469 61.651 57.8938 62.9271 57.8938 64.4375C57.8938 65.8958 57.3469 67.1719 56.2531 68.2656C55.2115 69.3594 53.9354 69.9062 52.425 69.9062C50.9146 69.9062 49.6125 69.3594 48.5188 68.2656C47.4771 67.1719 46.9563 65.8958 46.9563 64.4375C46.9563 62.9271 47.4771 61.651 48.5188 60.6094C49.6125 59.5156 50.9146 58.9688 52.425 58.9688ZM77.4656 16.1562V51.3125H71.0594V16.1562H77.4656ZM74.2625 58.9688C75.7729 58.9688 77.049 59.5156 78.0906 60.6094C79.1844 61.651 79.7313 62.9271 79.7313 64.4375C79.7313 65.8958 79.1844 67.1719 78.0906 68.2656C77.049 69.3594 75.7729 69.9062 74.2625 69.9062C72.7521 69.9062 71.45 69.3594 70.3563 68.2656C69.3146 67.1719 68.7938 65.8958 68.7938 64.4375C68.7938 62.9271 69.3146 61.651 70.3563 60.6094C71.45 59.5156 72.7521 58.9688 74.2625 58.9688ZM105.084 14.9844C108.209 14.9844 111.048 15.6354 113.6 16.9375C116.152 18.2396 118.157 20.0365 119.616 22.3281C121.126 24.6198 121.881 27.25 121.881 30.2188C121.881 32.1458 121.386 33.8906 120.397 35.4531C119.459 36.9635 118.261 38.3438 116.803 39.5938C115.397 40.8438 113.991 42.0156 112.584 43.1094C111.178 44.2031 110.006 45.2969 109.069 46.3906C108.131 47.4844 107.689 48.6302 107.741 49.8281L107.819 51.4688H100.241V48.3438C100.241 47.1979 100.683 46.1042 101.569 45.0625C102.506 43.9688 103.652 42.901 105.006 41.8594C106.36 40.7656 107.715 39.6719 109.069 38.5781C110.475 37.4323 111.621 36.2604 112.506 35.0625C113.444 33.8646 113.912 32.5885 113.912 31.2344C113.912 28.6823 113.079 26.5729 111.412 24.9062C109.798 23.2396 107.428 22.4062 104.303 22.4062C101.178 22.4062 98.574 23.0312 96.4906 24.2812C94.4594 25.4792 92.5062 27.276 90.6312 29.6719V21.1562C92.0375 19.4375 94.0427 17.9792 96.6469 16.7812C99.251 15.5833 102.064 14.9844 105.084 14.9844ZM104.381 58.9688C105.892 58.9688 107.168 59.5156 108.209 60.6094C109.303 61.651 109.85 62.9271 109.85 64.4375C109.85 65.8958 109.303 67.1719 108.209 68.2656C107.168 69.3594 105.892 69.9062 104.381 69.9062C102.871 69.9062 101.569 69.3594 100.475 68.2656C99.4333 67.1719 98.9125 65.8958 98.9125 64.4375C98.9125 62.9271 99.4333 61.651 100.475 60.6094C101.569 59.5156 102.871 58.9688 104.381 58.9688Z" fill="white"/>
</svg>
