<svg width="362" height="83" viewBox="0 0 362 83" fill="none" xmlns="http://www.w3.org/2000/svg">
<rect width="362" height="83" fill="#09090B"/>
<path d="M51.5797 29.4375L33.4547 46.4688L52.5953 68.5H44.4703L29.0016 50.6875L23.4547 55.8438V68.5H17.0484V12.25H23.4547V48.5L42.9078 29.4375H51.5797ZM73.3391 28.6562C75.5786 28.6562 77.8443 29.2031 80.1359 30.2969C82.4797 31.3385 84.4849 32.7969 86.1516 34.6719V29.4375H92.5578V68.5H86.1516V61.8594C84.7974 63.9427 82.9484 65.7656 80.6047 67.3281C78.313 68.8906 75.6828 69.6719 72.7141 69.6719C69.3807 69.6719 66.3338 68.8385 63.5734 67.1719C60.813 65.4531 58.5995 63.0833 56.9328 60.0625C55.3182 57.0417 54.5109 53.5521 54.5109 49.5938C54.5109 45.2708 55.3182 41.5469 56.9328 38.4219C58.5995 35.2969 60.8651 32.901 63.7297 31.2344C66.5943 29.5156 69.7974 28.6562 73.3391 28.6562ZM74.5109 34.9062C71.6984 34.9062 69.3026 35.6094 67.3234 37.0156C65.3443 38.4219 63.8078 40.2448 62.7141 42.4844C61.6724 44.6719 61.1516 47.0417 61.1516 49.5938C61.1516 52.0938 61.6724 54.4115 62.7141 56.5469C63.7557 58.6302 65.2141 60.2969 67.0891 61.5469C69.0161 62.7969 71.2297 63.4219 73.7297 63.4219C76.1255 63.4219 78.2609 62.7969 80.1359 61.5469C82.0109 60.2969 83.4953 58.5781 84.5891 56.3906C85.6828 54.151 86.2036 51.651 86.1516 48.8906L86.0734 41.3906C84.4588 39.3594 82.7141 37.7708 80.8391 36.625C79.0161 35.4792 76.9068 34.9062 74.5109 34.9062ZM110.489 10.6875C111.999 10.6875 113.249 11.2344 114.239 12.3281C115.281 13.3698 115.802 14.5938 115.802 16C115.802 17.3542 115.281 18.5781 114.239 19.6719C113.249 20.7656 111.999 21.3125 110.489 21.3125C108.979 21.3125 107.703 20.7656 106.661 19.6719C105.671 18.5781 105.177 17.3542 105.177 16C105.177 14.5938 105.671 13.3698 106.661 12.3281C107.703 11.2344 108.979 10.6875 110.489 10.6875ZM114.473 29.4375V68.5H108.067V35.4531H101.895V29.4375H114.473ZM138.342 28.6562C140.634 28.6562 142.769 28.9948 144.748 29.6719C146.728 30.2969 148.16 30.9479 149.045 31.625V38.5C147.952 37.6667 146.467 36.8594 144.592 36.0781C142.717 35.2969 140.79 34.9062 138.811 34.9062C136.363 34.9062 134.514 35.4792 133.264 36.625C132.066 37.7708 131.467 38.9688 131.467 40.2188C131.467 41.2083 131.806 42.224 132.483 43.2656C133.212 44.2552 134.462 45.0625 136.233 45.6875L142.795 48.0312C145.347 48.9167 147.248 50.1927 148.498 51.8594C149.748 53.526 150.373 55.4792 150.373 57.7188C150.373 59.9062 149.748 61.9115 148.498 63.7344C147.301 65.5573 145.608 67.0156 143.42 68.1094C141.285 69.151 138.811 69.6719 135.998 69.6719C134.488 69.6719 132.899 69.4635 131.233 69.0469C129.618 68.6823 128.16 68.2396 126.858 67.7188C125.556 67.1458 124.592 66.651 123.967 66.2344V59.3594C124.696 59.8802 125.712 60.4792 127.014 61.1562C128.368 61.7812 129.801 62.3281 131.311 62.7969C132.821 63.2135 134.228 63.4219 135.53 63.4219C137.978 63.4219 139.905 62.875 141.311 61.7812C142.769 60.6875 143.498 59.3333 143.498 57.7188C143.498 56.4688 143.004 55.4792 142.014 54.75C141.077 54.0208 139.696 53.3177 137.873 52.6406L132.092 50.5312C129.071 49.3854 127.066 47.9531 126.077 46.2344C125.087 44.4635 124.592 42.4583 124.592 40.2188C124.592 36.8854 125.842 34.125 128.342 31.9375C130.842 29.75 134.176 28.6562 138.342 28.6562ZM174.633 28.6562C178.643 28.6562 181.977 29.4896 184.633 31.1562C187.289 32.8229 189.268 35.0885 190.57 37.9531C191.924 40.8177 192.602 44.0469 192.602 47.6406V51.4688H162.602C162.914 53.6562 163.669 55.6615 164.867 57.4844C166.065 59.3073 167.628 60.7656 169.555 61.8594C171.482 62.901 173.695 63.4219 176.195 63.4219C179.008 63.4219 181.638 62.7188 184.086 61.3125C186.534 59.8542 188.591 58.2656 190.258 56.5469L190.18 63.5C189.451 64.3854 188.357 65.3229 186.898 66.3125C185.492 67.25 183.852 68.0312 181.977 68.6562C180.154 69.3333 178.227 69.6719 176.195 69.6719C172.237 69.6719 168.721 68.7344 165.648 66.8594C162.576 64.9844 160.154 62.5104 158.383 59.4375C156.664 56.3125 155.805 52.901 155.805 49.2031C155.805 45.5052 156.612 42.0938 158.227 38.9688C159.841 35.8438 162.055 33.3438 164.867 31.4688C167.732 29.5938 170.987 28.6562 174.633 28.6562ZM174.633 34.9062C171.404 34.9062 168.747 36 166.664 38.1875C164.581 40.3229 163.279 42.9271 162.758 46H186.273C186.013 43.4479 185.284 41.3646 184.086 39.75C182.94 38.1354 181.534 36.9375 179.867 36.1562C178.201 35.3229 176.456 34.9062 174.633 34.9062ZM242.527 28.6562C245.183 28.6562 247.605 29.2552 249.792 30.4531C251.98 31.599 253.724 33.3698 255.027 35.7656C256.329 38.1094 256.98 41.0781 256.98 44.6719V68.5H250.573L250.495 45.2969C250.495 41.9115 249.74 39.3333 248.23 37.5625C246.771 35.7917 244.506 34.9062 241.433 34.9062C239.349 34.9062 237.266 35.6875 235.183 37.25C233.152 38.7604 231.355 40.5312 229.792 42.5625V68.5H223.386V12.25H229.792V35.6094C230.626 34.5677 231.693 33.526 232.995 32.4844C234.297 31.3906 235.756 30.4792 237.37 29.75C239.037 29.0208 240.756 28.6562 242.527 28.6562ZM285.145 28.6562C289.104 28.6562 292.619 29.5938 295.692 31.4688C298.765 33.3438 301.161 35.8438 302.88 38.9688C304.651 42.0938 305.536 45.5052 305.536 49.2031C305.536 52.901 304.651 56.3125 302.88 59.4375C301.161 62.5104 298.765 64.9844 295.692 66.8594C292.619 68.7344 289.104 69.6719 285.145 69.6719C281.187 69.6719 277.671 68.7344 274.598 66.8594C271.526 64.9844 269.104 62.5104 267.333 59.4375C265.614 56.3125 264.755 52.901 264.755 49.2031C264.755 45.5052 265.614 42.0938 267.333 38.9688C269.104 35.8438 271.526 33.3438 274.598 31.4688C277.671 29.5938 281.187 28.6562 285.145 28.6562ZM285.145 34.9062C282.385 34.9062 279.963 35.5833 277.88 36.9375C275.796 38.2396 274.182 39.9844 273.036 42.1719C271.942 44.3073 271.395 46.651 271.395 49.2031C271.395 51.7031 271.942 54.0469 273.036 56.2344C274.182 58.3698 275.796 60.1146 277.88 61.4688C279.963 62.7708 282.385 63.4219 285.145 63.4219C287.958 63.4219 290.38 62.7708 292.411 61.4688C294.494 60.1146 296.083 58.3698 297.177 56.2344C298.322 54.0469 298.895 51.7031 298.895 49.2031C298.895 46.651 298.322 44.3073 297.177 42.1719C296.083 39.9844 294.494 38.2396 292.411 36.9375C290.38 35.5833 287.958 34.9062 285.145 34.9062ZM328.545 14.9844C331.67 14.9844 334.509 15.6354 337.061 16.9375C339.613 18.2396 341.618 20.0365 343.077 22.3281C344.587 24.6198 345.342 27.25 345.342 30.2188C345.342 32.1458 344.847 33.8906 343.858 35.4531C342.92 36.9635 341.722 38.3438 340.264 39.5938C338.858 40.8438 337.452 42.0156 336.045 43.1094C334.639 44.2031 333.467 45.2969 332.53 46.3906C331.592 47.4844 331.149 48.6302 331.202 49.8281L331.28 51.4688H323.702V48.3438C323.702 47.1979 324.144 46.1042 325.03 45.0625C325.967 43.9688 327.113 42.901 328.467 41.8594C329.821 40.7656 331.176 39.6719 332.53 38.5781C333.936 37.4323 335.082 36.2604 335.967 35.0625C336.905 33.8646 337.373 32.5885 337.373 31.2344C337.373 28.6823 336.54 26.5729 334.873 24.9062C333.259 23.2396 330.889 22.4062 327.764 22.4062C324.639 22.4062 322.035 23.0312 319.952 24.2812C317.92 25.4792 315.967 27.276 314.092 29.6719V21.1562C315.498 19.4375 317.504 17.9792 320.108 16.7812C322.712 15.5833 325.524 14.9844 328.545 14.9844ZM327.842 58.9688C329.353 58.9688 330.629 59.5156 331.67 60.6094C332.764 61.651 333.311 62.9271 333.311 64.4375C333.311 65.8958 332.764 67.1719 331.67 68.2656C330.629 69.3594 329.353 69.9062 327.842 69.9062C326.332 69.9062 325.03 69.3594 323.936 68.2656C322.894 67.1719 322.373 65.8958 322.373 64.4375C322.373 62.9271 322.894 61.651 323.936 60.6094C325.03 59.5156 326.332 58.9688 327.842 58.9688Z" fill="white"/>
</svg>
